<?xml version="1.0" encoding="utf-8"?>
<!-- Generator: Adobe Illustrator 15.1.0, SVG Export Plug-In . SVG Version: 6.00 Build 0)  -->
<!DOCTYPE svg PUBLIC "-//W3C//DTD SVG 1.1//EN" "http://www.w3.org/Graphics/SVG/1.1/DTD/svg11.dtd">
<svg version="1.1" id="Layer_1" xmlns="http://www.w3.org/2000/svg" xmlns:xlink="http://www.w3.org/1999/xlink" x="0px" y="0px"
	 width="190px" height="33px" viewBox="120 57 190 32" xml:space="preserve">
<path fill="#005295" stroke="#005295" stroke-width="0.75" d="M223.375,83.275c0,0-3.5-0.15-5.75-0.2c-2.2-0.05-5.7,0-5.7,0
	c-0.7,0-1.55,0.05-2.85,0.2l-0.5,0.05l0.05-0.5c0.15,0,0.2,0,0.4-0.05c1.8-0.2,2.35-0.7,2.35-2.15v-17.7c0-1.45-0.6-1.95-2.35-2.15
	c-0.2-0.05-0.25-0.05-0.4-0.05l-0.05-0.45l0.5,0.05c1.3,0.1,2.149,0.2,2.85,0.2h11.399l0.701,3.95h-0.5
	c-0.65-2.5-0.9-2.65-3.15-2.65l-6.5-0.05v8.3h8.25v1.15h-8.25v8.55c0,2,0.1,2.1,1.85,2.1h3.9c2.699,0,3.25-0.6,4.699-2.949
	l0.601-0.051C223.675,81.125,223.775,81.875,223.375,83.275"/>
<path fill="#005295" stroke="#005295" stroke-width="0.75" d="M223.375,83.275c0,0-3.5-0.15-5.75-0.2c-2.2-0.05-5.7,0-5.7,0
	c-0.7,0-1.55,0.05-2.85,0.2l-0.5,0.05l0.05-0.5c0.15,0,0.2,0,0.4-0.05c1.8-0.2,2.35-0.7,2.35-2.15v-17.7c0-1.45-0.6-1.95-2.35-2.15
	c-0.2-0.05-0.25-0.05-0.4-0.05l-0.05-0.45l0.5,0.05c1.3,0.1,2.149,0.2,2.85,0.2h11.399l0.701,3.95h-0.5
	c-0.65-2.5-0.9-2.65-3.15-2.65l-6.5-0.05v8.3h8.25v1.15h-8.25v8.55c0,2,0.1,2.1,1.85,2.1h3.9c2.699,0,3.25-0.6,4.699-2.949
	l0.601-0.051C223.675,81.125,223.775,81.875,223.375,83.275z"/>
<path fill="#005295" stroke="#005295" stroke-width="0.75" d="M240.275,66.825c0,2.65-1.801,4.6-4.051,5.55h-5.3v-9.45
	c0-1.7,0.45-1.8,2.75-1.8C238.074,61.125,240.275,63.875,240.275,66.825 M262.125,86.375c-1.7,0.75-4.801,1.4-7.45,0.45
	c-7.45-2.649-14.55-12.2-17.45-14.101c3.15-1.149,5.4-3.549,5.4-6.75c0-3.15-2.95-5.7-8-5.7c-1.85,0-4.801,0.2-5.7,0.2
	c-0.95,0-1.55-0.05-2.851-0.2l-0.5-0.05l0.051,0.45c0.15,0,0.199,0,0.4,0.05c1.799,0.2,2.35,0.7,2.35,2.15v17.7
	c0,1.45-0.6,1.95-2.35,2.149c-0.201,0.051-0.25,0.051-0.4,0.051l-0.051,0.5l0.5-0.051c1.301-0.1,2.15-0.199,2.851-0.199h1.399
	c0.701,0,1.551,0.05,2.851,0.199l0.5,0.051l-0.05-0.5c-0.15,0-0.2,0-0.4-0.051c-1.8-0.199-2.35-0.699-2.35-2.149v-7.351h3.199
	c4.101,1.75,12.701,15.25,22.301,15.25C259.225,88.475,261.875,87.025,262.125,86.375"/>
<path fill="#005295" stroke="#005295" stroke-width="0.75" d="M240.275,66.825c0,2.65-1.801,4.6-4.051,5.55h-5.3v-9.45
	c0-1.7,0.45-1.8,2.75-1.8C238.074,61.125,240.275,63.875,240.275,66.825z M262.125,86.375c-1.7,0.75-4.801,1.4-7.45,0.45
	c-7.45-2.649-14.55-12.2-17.45-14.101c3.15-1.149,5.4-3.549,5.4-6.75c0-3.15-2.95-5.7-8-5.7c-1.85,0-4.801,0.2-5.7,0.2
	c-0.95,0-1.55-0.05-2.851-0.2l-0.5-0.05l0.051,0.45c0.15,0,0.199,0,0.4,0.05c1.799,0.2,2.35,0.7,2.35,2.15v17.7
	c0,1.45-0.6,1.95-2.35,2.149c-0.201,0.051-0.25,0.051-0.4,0.051l-0.051,0.5l0.5-0.051c1.301-0.1,2.15-0.199,2.851-0.199h1.399
	c0.701,0,1.551,0.05,2.851,0.199l0.5,0.051l-0.05-0.5c-0.15,0-0.2,0-0.4-0.051c-1.8-0.199-2.35-0.699-2.35-2.149v-7.351h3.199
	c4.101,1.75,12.701,15.25,22.301,15.25C259.225,88.475,261.875,87.025,262.125,86.375z"/>
<path fill="#005295" stroke="#005295" stroke-width="0.75" d="M267.175,81.825c-1.399,1-4.95,1.851-7.75,1.851
	c-7.2,0-13.101-4.601-13.101-11.5c0-6.55,5.5-12.25,13.101-12.25c4.649,0,6.149,2.1,7.5,1.3l0.25,4.65h-0.399
	c-1.201-4-3.951-5.1-7.801-5.1c-5.75,0-9.75,5.3-9.5,11.4c0.301,6.45,4.95,10.7,10.45,10.7c4.05,0,6.7-1.15,7.2-5.85h0.6
	L267.175,81.825z"/>
<path fill="#005295" stroke="#005295" stroke-width="0.75" d="M267.175,81.825c-1.399,1-4.95,1.851-7.75,1.851
	c-7.2,0-13.101-4.601-13.101-11.5c0-6.55,5.5-12.25,13.101-12.25c4.649,0,6.149,2.1,7.5,1.3l0.25,4.65h-0.399
	c-1.201-4-3.951-5.1-7.801-5.1c-5.75,0-9.75,5.3-9.5,11.4c0.301,6.45,4.95,10.7,10.45,10.7c4.05,0,6.7-1.15,7.2-5.85h0.6
	L267.175,81.825z"/>
<path fill="#005295" stroke="#005295" stroke-width="0.75" d="M283.225,83.275c0,0-3.5-0.15-5.699-0.2c-2.201-0.05-5.701,0-5.701,0
	c-0.699,0-1.549,0.05-2.85,0.2l-0.5,0.05l0.051-0.5c0.149,0,0.199,0,0.399-0.05c1.8-0.2,2.351-0.7,2.351-2.15v-17.7
	c0-1.45-0.601-1.95-2.351-2.15c-0.2-0.05-0.25-0.05-0.399-0.05l-0.051-0.45l0.5,0.05c1.25,0.1,2.15,0.2,2.85,0.2h11.4l0.7,3.95h-0.5
	c-0.649-2.5-0.899-2.65-3.149-2.65l-6.5-0.05v8.3h8.25v1.15h-8.25v8.55c0,2,0.1,2.1,1.85,2.1h3.9c2.699,0,3.25-0.6,4.699-2.949
	l0.6-0.051C283.525,81.125,283.574,81.875,283.225,83.275"/>
<path fill="#005295" stroke="#005295" stroke-width="0.75" d="M283.225,83.275c0,0-3.5-0.15-5.699-0.2c-2.201-0.05-5.701,0-5.701,0
	c-0.699,0-1.549,0.05-2.85,0.2l-0.5,0.05l0.051-0.5c0.149,0,0.199,0,0.399-0.05c1.8-0.2,2.351-0.7,2.351-2.15v-17.7
	c0-1.45-0.601-1.95-2.351-2.15c-0.2-0.05-0.25-0.05-0.399-0.05l-0.051-0.45l0.5,0.05c1.25,0.1,2.15,0.2,2.85,0.2h11.4l0.7,3.95h-0.5
	c-0.649-2.5-0.899-2.65-3.149-2.65l-6.5-0.05v8.3h8.25v1.15h-8.25v8.55c0,2,0.1,2.1,1.85,2.1h3.9c2.699,0,3.25-0.6,4.699-2.949
	l0.6-0.051C283.525,81.125,283.574,81.875,283.225,83.275z"/>
<path fill="#005295" stroke="#005295" stroke-width="0.75" d="M306.475,71.425c0,5.799-4.25,10.85-10.199,10.85
	c-4.601,0-5.5-0.75-5.5-3.25v-17.6c0,0,4.649-0.15,5.5-0.15C301.875,61.275,306.475,65.325,306.475,71.425 M309.375,71.325
	c0-6.65-5.85-11.05-13.1-11.05c-1.551,0-7.451,0.2-7.451,0.2c-0.699,0-1.549-0.05-2.85-0.2l-0.5-0.05l0.051,0.45
	c0.149,0,0.199,0,0.399,0.05c1.8,0.2,2.351,0.7,2.351,2.15v17.7c0,1.45-0.601,1.95-2.351,2.149c-0.2,0.051-0.25,0.051-0.399,0.051
	l-0.051,0.5l0.5-0.051c1.301-0.1,2.15-0.199,2.85-0.199c0,0,5.551,0.05,7.451,0.05C303.875,83.176,309.375,77.625,309.375,71.325"/>
<path fill="#005295" stroke="#005295" stroke-width="0.75" d="M306.475,71.425c0,5.799-4.25,10.85-10.199,10.85
	c-4.601,0-5.5-0.75-5.5-3.25v-17.6c0,0,4.649-0.15,5.5-0.15C301.875,61.275,306.475,65.325,306.475,71.425z M309.375,71.325
	c0-6.65-5.85-11.05-13.1-11.05c-1.551,0-7.451,0.2-7.451,0.2c-0.699,0-1.549-0.05-2.85-0.2l-0.5-0.05l0.051,0.45
	c0.149,0,0.199,0,0.399,0.05c1.8,0.2,2.351,0.7,2.351,2.15v17.7c0,1.45-0.601,1.95-2.351,2.149c-0.2,0.051-0.25,0.051-0.399,0.051
	l-0.051,0.5l0.5-0.051c1.301-0.1,2.15-0.199,2.85-0.199c0,0,5.551,0.05,7.451,0.05C303.875,83.176,309.375,77.625,309.375,71.325z"
	/>
<path fill="#005295" stroke="#005295" stroke-width="0.75" d="M206.575,83.426c-1.45-0.101-2.45-0.201-3.2-0.201h-1.55
	c-0.8,0-1.75,0.101-3.2,0.201l-0.6,0.049l0.05-0.549c0.149,0,0.25,0,0.45-0.051c2-0.199,2.7-0.8,2.7-2.449v-20
	c0-1.65-0.649-2.25-2.7-2.45c-0.2-0.05-0.3-0.05-0.45-0.05l-0.05-0.55l0.6,0.05c1.45,0.1,2.45,0.2,3.2,0.2h1.55
	c0.8,0,1.75-0.1,3.2-0.2l0.6-0.05l-0.05,0.55c-0.15,0-0.25,0-0.45,0.05c-2,0.2-2.7,0.8-2.7,2.45v20.049c0,1.65,0.65,2.25,2.7,2.451
	c0.2,0.049,0.3,0.049,0.45,0.049l0.05,0.551L206.575,83.426z"/>
<path fill="#005295" stroke="#005295" stroke-width="0.75" d="M206.575,83.426c-1.45-0.101-2.45-0.201-3.2-0.201h-1.55
	c-0.8,0-1.75,0.101-3.2,0.201l-0.6,0.049l0.05-0.549c0.149,0,0.25,0,0.45-0.051c2-0.199,2.7-0.8,2.7-2.449v-20
	c0-1.65-0.649-2.25-2.7-2.45c-0.2-0.05-0.3-0.05-0.45-0.05l-0.05-0.55l0.6,0.05c1.45,0.1,2.45,0.2,3.2,0.2h1.55
	c0.8,0,1.75-0.1,3.2-0.2l0.6-0.05l-0.05,0.55c-0.15,0-0.25,0-0.45,0.05c-2,0.2-2.7,0.8-2.7,2.45v20.049c0,1.65,0.65,2.25,2.7,2.451
	c0.2,0.049,0.3,0.049,0.45,0.049l0.05,0.551L206.575,83.426z"/>
<path fill="#005295" stroke="#005295" stroke-width="0.75" d="M181.975,83.426c-1.45-0.101-2.45-0.201-3.2-0.201h-1.55
	c-0.8,0-1.75,0.101-3.2,0.201l-0.6,0.049l0.05-0.549c0.15,0,0.25,0,0.45-0.051c2-0.199,2.7-0.8,2.7-2.449v-20
	c0-1.65-0.65-2.25-2.7-2.45c-0.2-0.05-0.3-0.05-0.45-0.05l-0.05-0.55l0.6,0.05c1.45,0.1,2.45,0.2,3.2,0.2h1.55
	c0.8,0,1.75-0.1,3.2-0.2l0.601-0.05l-0.05,0.55c-0.15,0-0.25,0-0.45,0.05c-2,0.2-2.7,0.8-2.7,2.45v20.049
	c0,1.65,0.65,2.25,2.7,2.451c0.2,0.049,0.3,0.049,0.45,0.049l0.05,0.551L181.975,83.426z"/>
<path fill="#005295" stroke="#005295" stroke-width="0.75" d="M181.975,83.426c-1.45-0.101-2.45-0.201-3.2-0.201h-1.55
	c-0.8,0-1.75,0.101-3.2,0.201l-0.6,0.049l0.05-0.549c0.15,0,0.25,0,0.45-0.051c2-0.199,2.7-0.8,2.7-2.449v-20
	c0-1.65-0.65-2.25-2.7-2.45c-0.2-0.05-0.3-0.05-0.45-0.05l-0.05-0.55l0.6,0.05c1.45,0.1,2.45,0.2,3.2,0.2h1.55
	c0.8,0,1.75-0.1,3.2-0.2l0.601-0.05l-0.05,0.55c-0.15,0-0.25,0-0.45,0.05c-2,0.2-2.7,0.8-2.7,2.45v20.049
	c0,1.65,0.65,2.25,2.7,2.451c0.2,0.049,0.3,0.049,0.45,0.049l0.05,0.551L181.975,83.426z"/>
<polygon fill="#005295" stroke="#005295" stroke-width="0.75" points="189.575,83.525 190.975,83.525 202.025,61.975 
	201.125,58.525 190.275,81.075 179.325,58.525 178.925,62.975 "/>
<polygon fill="#005295" stroke="#005295" stroke-width="0.75" stroke-linecap="square" points="189.575,83.525 190.975,83.525 
	202.025,61.975 201.125,58.525 190.275,81.075 179.325,58.525 178.925,62.975 "/>
<path fill="#005295" stroke="#005295" stroke-width="0.75" d="M171.625,81.475c-1.55,1.15-5.6,2.101-8.7,2.101
	c-8.1,0-14.75-5.149-14.75-12.95c0-7.4,6.2-13.8,14.75-13.8c5.25,0,6.95,2.35,8.4,1.45l0.3,5.25h-0.45c-1.35-4.5-4.45-5.75-8.8-5.75
	c-6.5,0-10.95,5.95-10.65,12.8c0.351,7.25,5.601,12.05,11.75,12.05c4.55,0,7.55-1.3,8.101-6.6h0.7L171.625,81.475z"/>
<path fill="#005295" stroke="#005295" stroke-width="0.75" d="M171.625,81.475c-1.55,1.15-5.6,2.101-8.7,2.101
	c-8.1,0-14.75-5.149-14.75-12.95c0-7.4,6.2-13.8,14.75-13.8c5.25,0,6.95,2.35,8.4,1.45l0.3,5.25h-0.45c-1.35-4.5-4.45-5.75-8.8-5.75
	c-6.5,0-10.95,5.95-10.65,12.8c0.351,7.25,5.601,12.05,11.75,12.05c4.55,0,7.55-1.3,8.101-6.6h0.7L171.625,81.475z"/>
<path fill="#005295" stroke="#005295" stroke-width="0.75" d="M121.225,57.825c-0.2-0.05-0.3-0.05-0.45-0.05l-0.05-0.55l0.55,0.05
	c1.45,0.1,2.4,0.2,3.2,0.2h1.55c0.8,0,1.75-0.1,3.2-0.2l0.55-0.05l-0.05,0.55c-0.149,0-0.25,0-0.45,0.05c-2,0.2-2.65,0.8-2.65,2.4
	v13.451c0,5.85,4.45,8.1,7.95,8.1c3,0,6.05-2.25,7.649-4.95v-16.6c0-1.65-0.649-2.2-2.649-2.4c-0.2-0.05-0.3-0.05-0.45-0.05
	l-0.05-0.55l0.55,0.05c1.45,0.1,2.4,0.2,3.2,0.2h1.55c0.8,0,1.75-0.1,3.2-0.2l0.55-0.05l-0.05,0.55c-0.15,0-0.25,0-0.45,0.05
	c-2,0.2-2.65,0.8-2.65,2.4v19.951c0,1.649,0.65,2.199,2.65,2.399c0.2,0.05,0.3,0.05,0.45,0.05l0.05,0.551l-0.55-0.051
	c-1.45-0.1-2.4-0.199-3.2-0.199h-2.2v-3.9c-1.95,2.75-5.2,4.55-8.4,4.55c-4.9,0-9.95-2.649-9.95-9.899V60.225
	C123.875,58.625,123.225,58.025,121.225,57.825"/>
<path fill="#005295" stroke="#005295" stroke-width="0.75" d="M121.225,57.825c-0.2-0.05-0.3-0.05-0.45-0.05l-0.05-0.55l0.55,0.05
	c1.45,0.1,2.4,0.2,3.2,0.2h1.55c0.8,0,1.75-0.1,3.2-0.2l0.55-0.05l-0.05,0.55c-0.149,0-0.25,0-0.45,0.05c-2,0.2-2.65,0.8-2.65,2.4
	v13.451c0,5.85,4.45,8.1,7.95,8.1c3,0,6.05-2.25,7.649-4.95v-16.6c0-1.65-0.649-2.2-2.649-2.4c-0.2-0.05-0.3-0.05-0.45-0.05
	l-0.05-0.55l0.55,0.05c1.45,0.1,2.4,0.2,3.2,0.2h1.55c0.8,0,1.75-0.1,3.2-0.2l0.55-0.05l-0.05,0.55c-0.15,0-0.25,0-0.45,0.05
	c-2,0.2-2.65,0.8-2.65,2.4v19.951c0,1.649,0.65,2.199,2.65,2.399c0.2,0.05,0.3,0.05,0.45,0.05l0.05,0.551l-0.55-0.051
	c-1.45-0.1-2.4-0.199-3.2-0.199h-2.2v-3.9c-1.95,2.75-5.2,4.55-8.4,4.55c-4.9,0-9.95-2.649-9.95-9.899V60.225
	C123.875,58.625,123.225,58.025,121.225,57.825z"/>
<path fill="#005295" stroke="#005295" stroke-width="0.75" d="M145.225,82.725l-2.05,0.15c-0.8,0.051-1.9,0.1-3.3,0.25l-0.55,0.051
	v-0.551c0.149,0,0.25,0,0.45-0.05c2-0.3,2.55-0.899,2.5-2.55"/>
<path fill="#005295" stroke="#005295" stroke-width="0.75" d="M145.225,82.725l-2.05,0.15c-0.8,0.051-1.9,0.1-3.3,0.25l-0.55,0.051
	v-0.551c0.149,0,0.25,0,0.45-0.05c2-0.3,2.55-0.899,2.5-2.55"/>
</svg>
